{
  "accessors": [
    {
      "bufferView": 2,
      "componentType": 5126,
      "count": 23658,
      "max": [
        9.6852998733520508,
        9.6684999465942383,
        18.032600402832031
      ],
      "min": [
        -9.6780996322631836,
        -9.6400995254516602,
        0.05169999971985817
      ],
      "type": "VEC3"
    },
    {
      "bufferView": 2,
      "byteOffset": 283896,
      "componentType": 5126,
      "count": 23658,
      "max": [
        0.9997674822807312,
        0.9999774694442749,
        0.99999964237213135
      ],
      "min": [
        -0.99997270107269287,
        -0.99999004602432251,
        -1
      ],
      "type": "VEC3"
    },
    {
      "bufferView": 1,
      "componentType": 5126,
      "count": 23658,
      "max": [
        0.98650002479553223,
        0.99279999732971191
      ],
      "min": [
        0.00839999970048666,
        0.00839999970048666
      ],
      "type": "VEC2"
    },
    {
      "bufferView": 0,
      "componentType": 5125,
      "count": 133824,
      "max": [
        23657
      ],
      "min": [
        0
      ],
      "type": "SCALAR"
    }
  ],
  "asset": {
    "extras": {
      "author": "machal.klimek.666 (https://sketchfab.com/machal.klimek.666)",
      "license": "CC-BY-4.0 (http://creativecommons.org/licenses/by/4.0/)",
      "source": "https://sketchfab.com/3d-models/day14-vegetable-127ff005c129421aa7ef58983c1b281c",
      "title": "Day14-Vegetable"
    },
    "generator": "Sketchfab-9.85.0",
    "version": "2.0"
  },
  "bufferViews": [
    {
      "buffer": 0,
      "byteLength": 535296,
      "byteOffset": 0,
      "name": "floatBufferViews",
      "target": 34963
    },
    {
      "buffer": 0,
      "byteLength": 189264,
      "byteOffset": 535296,
      "byteStride": 8,
      "name": "floatBufferViews",
      "target": 34962
    },
    {
      "buffer": 0,
      "byteLength": 567792,
      "byteOffset": 724560,
      "byteStride": 12,
      "name": "floatBufferViews",
      "target": 34962
    }
  ],
  "buffers": [
    {
      "byteLength": 1292352,
      "uri": "scene.bin"
    }
  ],
  "images": [
    {
      "uri": "textures/Vegetable_baseColor.jpeg"
    }
  ],
  "materials": [
    {
      "doubleSided": true,
      "emissiveFactor": [
        0,
        0,
        0
      ],
      "name": "Vegetable",
      "pbrMetallicRoughness": {
        "baseColorFactor": [
          1,
          1,
          1,
          1
        ],
        "baseColorTexture": {
          "index": 0,
          "texCoord": 0
        },
        "metallicFactor": 0,
        "roughnessFactor": 0.89733101605922794
      }
    }
  ],
  "meshes": [
    {
      "name": "12209_Vegetable_v1_L3_Vegetable_0",
      "primitives": [
        {
          "attributes": {
            "NORMAL": 1,
            "POSITION": 0,
            "TEXCOORD_0": 2
          },
          "indices": 3,
          "material": 0,
          "mode": 4
        }
      ]
    }
  ],
  "nodes": [
    {
      "children": [
        1
      ],
      "name": "RootNode (gltf orientation matrix)",
      "rotation": [
        -0.70710678118654746,
        -0,
        -0,
        0.70710678118654757
      ]
    },
    {
      "children": [
        2
      ],
      "name": "RootNode (model correction matrix)"
    },
    {
      "children": [
        3
      ],
      "matrix": [
        1,
        0,
        0,
        0,
        0,
        0,
        1,
        0,
        0,
        -1,
        0,
        0,
        0,
        0,
        0,
        1
      ],
      "name": "020996f8d79a4db089635f37a6242ac2.fbx"
    },
    {
      "children": [
        4,
        7,
        9
      ],
      "name": "RootNode"
    },
    {
      "children": [
        5
      ],
      "matrix": [
        -29.086466012969506,
        -5.5189043349432856,
        -95.517122630955939,
        0,
        56.639311688885009,
        79.467234770950611,
        -21.839115578886229,
        0,
        77.110090100961997,
        -60.452463121430632,
        -19.988339280030054,
        0,
        407.62454223632812,
        590.38623046875,
        -100.54539489746094,
        1
      ],
      "name": "Light"
    },
    {
      "children": [
        6
      ],
      "matrix": [
        1,
        0,
        0,
        0,
        0,
        2.2204460492503131e-16,
        1,
        0,
        0,
        -1,
        2.2204460492503131e-16,
        0,
        0,
        0,
        0,
        1
      ],
      "name": ""
    },
    {
      "name": ""
    },
    {
      "children": [
        8
      ],
      "matrix": [
        -65.155830149266762,
        -44.527139649298732,
        -61.417030473735487,
        0,
        -32.401348759389705,
        89.539572581065741,
        -30.542086805773785,
        0,
        68.592053755664978,
        -3.9617552879958372e-06,
        -72.767634534187692,
        0,
        735.88916015625,
        495.8309326171875,
        692.5791015625,
        1
      ],
      "name": "Camera"
    },
    {
      "name": ""
    },
    {
      "children": [
        10
      ],
      "matrix": [
        11.415558815002441,
        2.5347638514103278e-15,
        -2.5347629449083502e-15,
        0,
        -2.5347643449469016e-15,
        6.3052133379246065e-06,
        -11.415558815000701,
        0,
        -2.5347624513715035e-15,
        11.415558815000701,
        6.3052133379246065e-06,
        0,
        0,
        0,
        0,
        1
      ],
      "name": "12209_Vegetable_v1_L3"
    },
    {
      "mesh": 0,
      "name": "12209_Vegetable_v1_L3_Vegetable_0"
    }
  ],
  "samplers": [
    {
      "magFilter": 9729,
      "minFilter": 9987,
      "wrapS": 10497,
      "wrapT": 10497
    }
  ],
  "scene": 0,
  "scenes": [
    {
      "name": "OSG_Scene",
      "nodes": [
        0
      ]
    }
  ],
  "textures": [
    {
      "sampler": 0,
      "source": 0
    }
  ]
}

